<?xml version="1.0" encoding="utf-8"?>
<!-- Generator: Adobe Illustrator 16.2.1, SVG Export Plug-In . SVG Version: 6.00 Build 0)  -->
<!DOCTYPE svg PUBLIC "-//W3C//DTD SVG 1.1//EN" "http://www.w3.org/Graphics/SVG/1.1/DTD/svg11.dtd">
<svg version="1.1" id="Layer_1" xmlns="http://www.w3.org/2000/svg" xmlns:xlink="http://www.w3.org/1999/xlink" x="0px" y="0px"
	 width="180px" height="54.396px" viewBox="0 0 180 54.396" enable-background="new 0 0 180 54.396" xml:space="preserve">
<g id="logo" opacity="0.4">
</g>
<g id="Layer_2">
	<g>
		<g opacity="0.4">
			<path d="M79,24.83c-24.49,0.609-47.747,3.145-67.978,7.369v1.477C30.767,29.551,53.988,26.921,79,26.295V24.83z"/>
			<path d="M101,24.83c24.488,0.609,47.747,3.145,67.977,7.369v1.477c-19.746-4.125-42.965-6.755-67.977-7.381V24.83L101,24.83z"/>
			<rect x="82.337" y="22.132" width="15.342" height="1.56"/>
			<path d="M87.651,19.024c0,0.815-0.664,1.479-1.481,1.479c-0.815,0-1.474-0.664-1.474-1.479c0-0.813,0.659-1.471,1.474-1.471
				C86.988,17.552,87.651,18.21,87.651,19.024z"/>
			<path d="M95.322,19.024c0,0.815-0.66,1.479-1.477,1.479c-0.814,0-1.474-0.664-1.474-1.479c0-0.813,0.66-1.471,1.474-1.471
				C94.662,17.552,95.322,18.21,95.322,19.024z"/>
			<path d="M95.322,19.024c0,0.815-0.66,1.479-1.477,1.479c-0.814,0-1.474-0.664-1.474-1.479c0-0.813,0.66-1.471,1.474-1.471
				C94.662,17.552,95.322,18.21,95.322,19.024z"/>
			<path d="M99.158,19.024c0,0.815-0.66,1.479-1.479,1.479c-0.816,0-1.474-0.664-1.474-1.479c0-0.813,0.658-1.471,1.474-1.471
				C98.498,17.552,99.158,18.21,99.158,19.024z"/>
			<path d="M80.859,19.024c0,0.815,0.662,1.479,1.479,1.479c0.817,0,1.474-0.664,1.474-1.479c0-0.813-0.657-1.471-1.474-1.471
				C81.521,17.552,80.859,18.21,80.859,19.024z"/>
			<path d="M91.922,4.666V3.689h-1.429V2.316H89.52v1.373h-1.429v0.977h1.429v1.487c-0.796,0.214-1.385,0.934-1.385,1.797
				c0,1.028,0.834,1.864,1.862,1.864c1.03,0,1.86-0.835,1.86-1.864c0-0.855-0.578-1.568-1.365-1.789V4.666H91.922L91.922,4.666z"/>
			<rect x="82.337" y="24.677" width="15.342" height="1.56"/>
			<path d="M91.484,19.024c0,0.815-0.658,1.479-1.476,1.479c-0.817,0-1.475-0.664-1.475-1.479c0-0.813,0.657-1.471,1.475-1.471
				C90.826,17.552,91.484,18.21,91.484,19.024z"/>
			<path d="M101.476,12.065c-1.037-0.988-2.838-0.988-4.714-0.445c-0.039-0.243-0.101-0.474-0.201-0.681
				c-0.255-0.515-0.836-1.155-2.122-1.268c-1.414-0.123-3.272,0.656-4.431,1.733c-1.155-1.077-3.013-1.855-4.427-1.733
				c-1.289,0.112-1.867,0.752-2.127,1.268c-0.099,0.207-0.161,0.438-0.196,0.681c-1.875-0.543-3.677-0.543-4.713,0.445
				c-0.476,0.452-0.719,1.017-0.711,1.637c0.017,1.32,1.183,2.678,2.654,4.08c0.078-0.119,0.17-0.23,0.275-0.333
				c0.347-0.347,0.79-0.565,1.271-0.628c-1.225-1.146-2.432-2.395-2.444-3.139c0-0.112,0.027-0.211,0.165-0.347
				c0.564-0.539,2.065-0.414,3.693,0.191c0.291,0.984,0.845,2.146,1.686,3.527c0.318-0.166,0.671-0.253,1.041-0.253
				c0.358,0,0.698,0.084,0.997,0.236c-0.199-0.337-0.333-0.558-0.333-0.558c-1.593-2.54-1.874-3.794-1.874-4.363
				c0-0.225,0.041-0.344,0.066-0.392c0.085-0.167,0.323-0.264,0.703-0.3c1.073-0.095,2.76,0.745,3.397,1.636v3.92
				c0.274-0.118,0.571-0.179,0.877-0.179c0.31,0,0.606,0.061,0.88,0.179v-3.92c0.638-0.891,2.326-1.731,3.399-1.636
				c0.381,0.037,0.614,0.133,0.7,0.3c0.024,0.048,0.069,0.167,0.069,0.392c0,0.569-0.28,1.823-1.877,4.363
				c0,0-0.13,0.221-0.331,0.558c0.3-0.151,0.639-0.236,0.997-0.236c0.366,0,0.723,0.087,1.04,0.253
				c0.84-1.381,1.395-2.543,1.686-3.527c1.625-0.604,3.126-0.729,3.693-0.191c0.136,0.136,0.166,0.234,0.166,0.347
				c-0.016,0.744-1.221,1.993-2.444,3.139c0.48,0.063,0.924,0.281,1.27,0.628c0.105,0.103,0.198,0.214,0.276,0.333
				c1.472-1.402,2.636-2.76,2.652-4.08C102.193,13.082,101.95,12.516,101.476,12.065z"/>
			<path d="M69.502,43.185h5.958v1.602h-3.706v1.741h3.499v1.599h-3.499v1.915h3.838v1.597h-6.089V43.185z"/>
			<path d="M88.165,49.554c0.583,0.317,1.395,0.558,2.327,0.558c0.713,0,1.393-0.146,1.393-0.823c0-1.576-3.996-0.582-3.996-3.657
				c0-2.033,1.984-2.592,3.681-2.592c0.811,0,1.61,0.121,2.179,0.317l-0.146,1.742c-0.58-0.265-1.233-0.388-1.876-0.388
				c-0.569,0-1.515,0.049-1.515,0.788c0,1.368,3.998,0.447,3.998,3.498c0,2.193-1.841,2.786-3.718,2.786
				c-0.787,0-1.768-0.119-2.52-0.363L88.165,49.554z"/>
			<path d="M96.51,49.554c0.582,0.317,1.391,0.558,2.324,0.558c0.715,0,1.393-0.146,1.393-0.823c0-1.576-3.997-0.582-3.997-3.657
				c0-2.033,1.987-2.592,3.681-2.592c0.812,0,1.612,0.121,2.182,0.317l-0.148,1.742c-0.579-0.265-1.233-0.388-1.874-0.388
				c-0.57,0-1.515,0.049-1.515,0.788c0,1.368,3.996,0.447,3.996,3.498c0,2.193-1.841,2.786-3.717,2.786
				c-0.787,0-1.767-0.119-2.517-0.363L96.51,49.554z"/>
			<path d="M106.344,44.857h-2.085v-1.671h6.417v1.671h-2.082v6.782h-2.251V44.857z"/>
			<path d="M115.024,48.453l-3.124-5.268h2.592l1.658,3.391l1.634-3.391h2.592l-3.1,5.268v3.186h-2.253L115.024,48.453
				L115.024,48.453z"/>
			<path d="M122.121,43.185h4.02c1.504,0,2.726,0.679,2.726,2.132c0,1.126-0.533,1.875-1.623,2.13v0.025
				c0.725,0.195,0.775,0.834,1.197,1.865l0.825,2.3h-2.35l-0.484-1.525c-0.46-1.453-0.75-1.816-1.586-1.816h-0.472v3.341h-2.252
				V43.185L122.121,43.185L122.121,43.185z M124.372,46.698h0.595c0.727,0,1.648-0.024,1.648-0.98c0-0.788-0.787-0.932-1.648-0.932
				h-0.595V46.698z"/>
			<path d="M131.418,43.185h5.96v1.6h-3.706v1.743h3.498v1.6h-3.498v1.912h3.838v1.6h-6.092V43.185L131.418,43.185L131.418,43.185z"
				/>
			<path d="M139.884,43.185h2.251v6.78h3.488v1.673h-5.74V43.185L139.884,43.185z"/>
			<path d="M147.719,49.554c0.582,0.317,1.394,0.558,2.326,0.558c0.714,0,1.394-0.146,1.394-0.823c0-1.576-3.997-0.582-3.997-3.657
				c0-2.033,1.984-2.592,3.681-2.592c0.811,0,1.611,0.121,2.178,0.317l-0.145,1.742c-0.58-0.265-1.234-0.388-1.877-0.388
				c-0.569,0-1.512,0.049-1.512,0.788c0,1.368,3.996,0.447,3.996,3.498c0,2.193-1.84,2.786-3.718,2.786
				c-0.786,0-1.768-0.119-2.519-0.363L147.719,49.554z"/>
			<path d="M156.1,43.185h5.956v1.6h-3.704v1.743h3.499v1.6h-3.499v1.912h3.838v1.6h-6.09V43.185z"/>
			<path d="M164.562,43.185h2.87l2.86,5.741h0.024l-0.036-5.741h2.057v8.453h-2.797l-2.955-5.775h-0.023l0.072,5.775h-2.072V43.185
				L164.562,43.185z"/>
			<path d="M77.966,43.186h3.075c2.942,0,5,0.921,5,4.191c0,3.159-2.12,4.261-5,4.261h-3.075V43.186z M80.218,49.969h0.87
				c1.685,0,2.628-0.873,2.628-2.553c0-1.686-0.98-2.557-2.628-2.557h-0.87V49.969z"/>
			<path d="M32.402,43.185h2.252v3.453h0.024l2.543-3.453h2.711l-3.122,3.937l3.367,4.517h-2.87l-2.628-3.838h-0.024v3.838h-2.252
				L32.402,43.185L32.402,43.185z"/>
			<path d="M50.479,43.185h4.02c1.501,0,2.727,0.679,2.727,2.132c0,1.126-0.536,1.878-1.624,2.131v0.025
				c0.726,0.19,0.775,0.834,1.198,1.866l0.825,2.299h-2.35l-0.483-1.524c-0.46-1.455-0.751-1.818-1.587-1.818h-0.472v3.342H50.48
				L50.479,43.185L50.479,43.185L50.479,43.185z M52.732,46.698h0.594c0.726,0,1.645-0.023,1.645-0.98
				c0-0.786-0.787-0.931-1.645-0.931h-0.594V46.698z"/>
			<path d="M59.778,43.185h2.254v3.234h2.663v-3.234h2.251v8.454h-2.251v-3.62h-2.663v3.62h-2.254V43.185z"/>
			<path d="M41.992,43.185h5.958v1.602h-3.707v1.741h3.501v1.6h-3.501v1.915h3.841v1.597h-6.092V43.185z"/>
			<path d="M22.92,43.185h2.251v3.453h0.025l2.542-3.453h2.711l-3.122,3.937l3.366,4.517h-2.871l-2.628-3.838h-0.025v3.838H22.92
				V43.185L22.92,43.185z"/>
			<path d="M18.088,43.186h2.255v8.453h-2.255V43.186z"/>
			<path d="M7.663,43.746c0,2.257,1.704,2.771,3.206,3.225c1.125,0.34,2.187,0.661,2.187,1.709c0,0.885-0.706,1.334-2.099,1.334
				c-1.052,0-2.073-0.254-2.949-0.669c-0.042,0.409-0.183,1.766-0.213,2.047c0.902,0.267,2.088,0.435,3.162,0.435
				c2.189,0,4.796-0.614,4.796-3.538c0-2.298-1.767-2.794-3.327-3.233c-1.061-0.3-2.066-0.581-2.066-1.488
				c0-1.281,1.703-1.281,2.264-1.281c0.833,0,1.624,0.168,2.336,0.447c0.032-0.388,0.133-1.607,0.156-1.887
				c-0.748-0.232-1.733-0.377-2.706-0.377C10.983,40.47,7.663,40.792,7.663,43.746z"/>
		</g>
		<g>
			<g>
				<g>
					<g>
						<path fill="#FFFFFF" d="M79,25.084c-24.49,0.609-47.747,3.145-67.978,7.369v1.477C30.767,29.805,53.988,27.175,79,26.549
							V25.084z"/>
						<path fill="#FFFFFF" d="M101,25.084c24.488,0.609,47.747,3.145,67.977,7.369v1.477c-19.746-4.125-42.965-6.755-67.977-7.381
							V25.084L101,25.084z"/>
						<g>
							<rect x="82.337" y="22.385" fill="#FFFFFF" width="15.342" height="1.561"/>
							<path fill="#FFFFFF" d="M87.651,19.278c0,0.814-0.664,1.479-1.481,1.479c-0.815,0-1.474-0.665-1.474-1.479
								c0-0.814,0.659-1.472,1.474-1.472C86.988,17.806,87.651,18.464,87.651,19.278z"/>
							<path fill="#FFFFFF" d="M95.322,19.278c0,0.814-0.66,1.479-1.477,1.479c-0.814,0-1.474-0.665-1.474-1.479
								c0-0.814,0.66-1.472,1.474-1.472C94.662,17.806,95.322,18.464,95.322,19.278z"/>
							<path fill="#FFFFFF" d="M95.322,19.278c0,0.814-0.66,1.479-1.477,1.479c-0.814,0-1.474-0.665-1.474-1.479
								c0-0.814,0.66-1.472,1.474-1.472C94.662,17.806,95.322,18.464,95.322,19.278z"/>
							<path fill="#FFFFFF" d="M99.158,19.278c0,0.814-0.66,1.479-1.479,1.479c-0.816,0-1.474-0.665-1.474-1.479
								c0-0.814,0.658-1.472,1.474-1.472C98.498,17.806,99.158,18.464,99.158,19.278z"/>
							<path fill="#FFFFFF" d="M80.859,19.278c0,0.814,0.662,1.479,1.479,1.479c0.817,0,1.474-0.665,1.474-1.479
								c0-0.814-0.657-1.472-1.474-1.472C81.521,17.806,80.859,18.464,80.859,19.278z"/>
							<path fill="#FFFFFF" d="M91.922,4.92V3.943h-1.429V2.569H89.52v1.374h-1.429V4.92h1.429v1.486
								c-0.796,0.214-1.385,0.934-1.385,1.797c0,1.028,0.834,1.863,1.862,1.863c1.03,0,1.86-0.835,1.86-1.863
								c0-0.854-0.578-1.569-1.365-1.789V4.92L91.922,4.92L91.922,4.92z"/>
							<rect x="82.337" y="24.93" fill="#FFFFFF" width="15.342" height="1.561"/>
							<path fill="#FFFFFF" d="M91.484,19.278c0,0.814-0.658,1.479-1.476,1.479c-0.817,0-1.475-0.665-1.475-1.479
								c0-0.814,0.657-1.472,1.475-1.472C90.826,17.806,91.484,18.464,91.484,19.278z"/>
							<path fill="#FFFFFF" d="M101.476,12.318c-1.037-0.988-2.838-0.988-4.714-0.445c-0.039-0.243-0.101-0.474-0.201-0.679
								c-0.255-0.517-0.836-1.156-2.122-1.269c-1.414-0.123-3.272,0.656-4.431,1.733c-1.155-1.077-3.013-1.856-4.427-1.733
								c-1.289,0.113-1.867,0.752-2.127,1.269c-0.099,0.206-0.161,0.437-0.196,0.679c-1.875-0.542-3.677-0.542-4.713,0.445
								c-0.476,0.452-0.719,1.018-0.711,1.637c0.017,1.32,1.183,2.679,2.654,4.08c0.078-0.119,0.17-0.23,0.275-0.333
								c0.347-0.348,0.79-0.566,1.271-0.629c-1.225-1.145-2.432-2.395-2.444-3.139c0-0.113,0.027-0.211,0.165-0.347
								c0.564-0.539,2.065-0.413,3.693,0.191c0.291,0.984,0.845,2.146,1.686,3.528c0.318-0.166,0.671-0.254,1.041-0.254
								c0.358,0,0.698,0.084,0.997,0.236c-0.199-0.336-0.333-0.558-0.333-0.558c-1.593-2.54-1.874-3.794-1.874-4.363
								c0-0.225,0.041-0.344,0.066-0.392c0.085-0.166,0.323-0.264,0.703-0.299c1.073-0.096,2.76,0.744,3.397,1.635v3.92
								c0.274-0.117,0.571-0.179,0.877-0.179c0.31,0,0.606,0.062,0.88,0.179v-3.92c0.638-0.891,2.326-1.73,3.399-1.635
								c0.381,0.035,0.614,0.133,0.7,0.299c0.024,0.048,0.069,0.167,0.069,0.392c0,0.569-0.28,1.823-1.877,4.363
								c0,0-0.13,0.222-0.331,0.558c0.3-0.151,0.639-0.236,0.997-0.236c0.366,0,0.723,0.088,1.04,0.254
								c0.84-1.381,1.395-2.544,1.686-3.528c1.625-0.604,3.126-0.729,3.693-0.191c0.136,0.136,0.166,0.234,0.166,0.347
								c-0.016,0.744-1.221,1.994-2.444,3.139c0.48,0.063,0.924,0.282,1.27,0.629c0.105,0.103,0.198,0.214,0.276,0.333
								c1.472-1.401,2.636-2.76,2.652-4.08C102.193,13.336,101.95,12.77,101.476,12.318z"/>
						</g>
					</g>
				</g>
				<g>
					<path fill="#FFFFFF" d="M69.502,43.44h5.958v1.602h-3.706v1.742h3.499v1.598h-3.499v1.914h3.838v1.599h-6.089V43.44z"/>
					<path fill="#FFFFFF" d="M88.165,49.808c0.583,0.317,1.395,0.558,2.327,0.558c0.713,0,1.393-0.146,1.393-0.823
						c0-1.575-3.996-0.582-3.996-3.656c0-2.034,1.984-2.593,3.681-2.593c0.811,0,1.61,0.121,2.179,0.317l-0.146,1.742
						c-0.58-0.265-1.233-0.387-1.876-0.387c-0.569,0-1.515,0.049-1.515,0.788c0,1.368,3.998,0.447,3.998,3.498
						c0,2.194-1.841,2.786-3.718,2.786c-0.787,0-1.768-0.119-2.52-0.363L88.165,49.808z"/>
					<path fill="#FFFFFF" d="M96.51,49.808c0.582,0.317,1.391,0.558,2.324,0.558c0.715,0,1.393-0.146,1.393-0.823
						c0-1.575-3.997-0.582-3.997-3.656c0-2.034,1.987-2.593,3.681-2.593c0.812,0,1.612,0.121,2.182,0.317l-0.148,1.742
						c-0.579-0.265-1.233-0.387-1.874-0.387c-0.57,0-1.515,0.049-1.515,0.788c0,1.368,3.996,0.447,3.996,3.498
						c0,2.194-1.841,2.786-3.717,2.786c-0.787,0-1.767-0.119-2.517-0.363L96.51,49.808z"/>
					<path fill="#FFFFFF" d="M106.344,45.111h-2.085V43.44h6.417v1.671h-2.082v6.781h-2.251V45.111z"/>
					<path fill="#FFFFFF" d="M115.024,48.707l-3.124-5.267h2.592l1.658,3.391l1.634-3.391h2.592l-3.1,5.267v3.185h-2.253
						L115.024,48.707L115.024,48.707z"/>
					<path fill="#FFFFFF" d="M122.121,43.44h4.02c1.504,0,2.726,0.678,2.726,2.131c0,1.126-0.533,1.875-1.623,2.13v0.025
						c0.725,0.194,0.775,0.834,1.197,1.864l0.825,2.3h-2.35l-0.484-1.525c-0.46-1.453-0.75-1.816-1.586-1.816h-0.472v3.341h-2.252
						V43.44L122.121,43.44L122.121,43.44z M124.372,46.951h0.595c0.727,0,1.648-0.024,1.648-0.981c0-0.788-0.787-0.932-1.648-0.932
						h-0.595V46.951z"/>
					<path fill="#FFFFFF" d="M131.418,43.44h5.96v1.599h-3.706v1.743h3.498v1.6h-3.498v1.911h3.838v1.6h-6.092V43.44L131.418,43.44
						L131.418,43.44z"/>
					<path fill="#FFFFFF" d="M139.884,43.44h2.251v6.78h3.488v1.672h-5.74V43.44L139.884,43.44z"/>
					<path fill="#FFFFFF" d="M147.719,49.808c0.582,0.317,1.394,0.558,2.326,0.558c0.714,0,1.394-0.146,1.394-0.823
						c0-1.575-3.997-0.582-3.997-3.656c0-2.034,1.984-2.593,3.681-2.593c0.811,0,1.611,0.121,2.178,0.317l-0.145,1.742
						c-0.58-0.265-1.234-0.387-1.877-0.387c-0.569,0-1.512,0.049-1.512,0.788c0,1.368,3.996,0.447,3.996,3.498
						c0,2.194-1.84,2.786-3.718,2.786c-0.786,0-1.768-0.119-2.519-0.363L147.719,49.808z"/>
					<path fill="#FFFFFF" d="M156.1,43.44h5.956v1.599h-3.704v1.743h3.499v1.6h-3.499v1.911h3.838v1.6h-6.09V43.44z"/>
					<path fill="#FFFFFF" d="M164.562,43.44h2.87l2.86,5.741h0.024l-0.036-5.741h2.057v8.452h-2.797l-2.955-5.775h-0.023
						l0.072,5.775h-2.072V43.44L164.562,43.44z"/>
					<path fill="#FFFFFF" d="M77.966,43.441h3.075c2.942,0,5,0.92,5,4.19c0,3.159-2.12,4.263-5,4.263h-3.075V43.441z M80.218,50.222
						h0.87c1.685,0,2.628-0.872,2.628-2.554c0-1.685-0.98-2.556-2.628-2.556h-0.87V50.222z"/>
					<path fill="#FFFFFF" d="M32.402,43.44h2.252v3.453h0.024l2.543-3.453h2.711l-3.122,3.936l3.367,4.518h-2.87l-2.628-3.839
						h-0.024v3.839h-2.252L32.402,43.44L32.402,43.44z"/>
					<path fill="#FFFFFF" d="M50.479,43.44h4.02c1.501,0,2.727,0.678,2.727,2.131c0,1.126-0.536,1.878-1.624,2.131v0.025
						c0.726,0.19,0.775,0.835,1.198,1.865l0.825,2.301h-2.35l-0.483-1.525c-0.46-1.454-0.751-1.817-1.587-1.817h-0.472v3.342H50.48
						L50.479,43.44L50.479,43.44L50.479,43.44z M52.732,46.951h0.594c0.726,0,1.645-0.023,1.645-0.98
						c0-0.786-0.787-0.931-1.645-0.931h-0.594V46.951z"/>
					<path fill="#FFFFFF" d="M59.778,43.44h2.254v3.233h2.663V43.44h2.251v8.454h-2.251v-3.621h-2.663v3.621h-2.254V43.44z"/>
					<path fill="#FFFFFF" d="M41.992,43.44h5.958v1.601h-3.707v1.741h3.501v1.6h-3.501v1.914h3.841v1.599h-6.092V43.44z"/>
					<path fill="#FFFFFF" d="M22.92,43.44h2.251v3.453h0.025l2.542-3.453h2.711l-3.122,3.936l3.366,4.518h-2.871l-2.628-3.839
						h-0.025v3.839H22.92V43.44L22.92,43.44z"/>
					<path fill="#FFFFFF" d="M18.088,43.441h2.255v8.453h-2.255V43.441z"/>
					<path fill="#FFFFFF" d="M7.663,44c0,2.257,1.704,2.771,3.206,3.226c1.125,0.339,2.187,0.66,2.187,1.708
						c0,0.886-0.706,1.334-2.099,1.334c-1.052,0-2.073-0.254-2.949-0.669c-0.042,0.409-0.183,1.766-0.213,2.048
						c0.902,0.266,2.088,0.433,3.162,0.433c2.189,0,4.796-0.614,4.796-3.537c0-2.298-1.767-2.794-3.327-3.233
						c-1.061-0.3-2.066-0.581-2.066-1.488c0-1.28,1.703-1.28,2.264-1.28c0.833,0,1.624,0.168,2.336,0.448
						c0.032-0.389,0.133-1.608,0.156-1.888c-0.748-0.232-1.733-0.377-2.706-0.377C10.983,40.724,7.663,41.045,7.663,44z"/>
				</g>
			</g>
		</g>
	</g>
</g>
</svg>
